<svg width="77" height="33" viewBox="0 0 77 33" fill="none" xmlns="http://www.w3.org/2000/svg">
<path d="M4.74555 16.6029C6.50575 14.492 7.89091 11.7991 9.41024 9.56433C11.8312 6.04198 14.2165 4.90128 18.1742 4.76403L73.724 4.76404L30.724 2.26436L18.0757 1.92415C14.0589 2.06346 11.2011 3.22054 8.70043 6.15055L8.24619 6.69529C7.98274 7.05708 7.6996 7.41955 7.39677 7.78271C5.25743 10.8986 3.33882 15.2631 0.492438 16.7504L4.74555 16.6029Z" fill="#D9D9D9"/>
<path d="M4.74555 16.6029C6.50575 14.492 7.89091 11.7991 9.41024 9.56433C11.8312 6.04198 14.2165 4.90128 18.1742 4.76403L73.724 4.76404L30.724 2.26436L18.0757 1.92415C14.0589 2.06346 11.2011 3.22054 8.70043 6.15055L8.24619 6.69529C7.98274 7.05708 7.6996 7.41955 7.39677 7.78271C5.25743 10.8986 3.33882 15.2631 0.492438 16.7504L4.74555 16.6029Z" fill="url(#paint0_linear_198_95)"/>
<path d="M71.3057 16.1475C69.5455 18.2584 68.1604 20.9513 66.641 23.1861C64.2201 26.7084 61.8348 27.8491 57.877 27.9864L2.32727 27.9864L45.3273 30.486L57.9755 30.8262C61.9924 30.6869 64.8502 29.5299 67.3508 26.5998L67.8051 26.0551C68.0685 25.6933 68.3517 25.3308 68.6545 24.9677C70.7938 21.8518 72.7125 17.4873 75.5588 16L71.3057 16.1475Z" fill="#D9D9D9"/>
<path d="M71.3057 16.1475C69.5455 18.2584 68.1604 20.9513 66.641 23.1861C64.2201 26.7084 61.8348 27.8491 57.877 27.9864L2.32727 27.9864L45.3273 30.486L57.9755 30.8262C61.9924 30.6869 64.8502 29.5299 67.3508 26.5998L67.8051 26.0551C68.0685 25.6933 68.3517 25.3308 68.6545 24.9677C70.7938 21.8518 72.7125 17.4873 75.5588 16L71.3057 16.1475Z" fill="url(#paint1_linear_198_95)"/>
<defs>
<linearGradient id="paint0_linear_198_95" x1="0.0136467" y1="2.48099" x2="50.8431" y2="0.71821" gradientUnits="userSpaceOnUse">
<stop stop-color="#9E0000"/>
<stop offset="1" stop-color="#FF1212"/>
</linearGradient>
<linearGradient id="paint1_linear_198_95" x1="76.0376" y1="30.2694" x2="25.2081" y2="32.0322" gradientUnits="userSpaceOnUse">
<stop stop-color="#9E0000"/>
<stop offset="1" stop-color="#FF1212"/>
</linearGradient>
</defs>
</svg>
