<svg width="149" height="47" viewBox="0 0 149 47" fill="none" xmlns="http://www.w3.org/2000/svg">
<path d="M47.3933 0.0697632H30.8276H0.293945V46.5403H145.862H149V43.3949V0.0697632H47.3933Z" fill="url(#paint0_linear_278_2364)"/>
<path d="M147.359 1.71008H1.94043V44.8932H147.359V1.71008Z" fill="#121117"/>
<path d="M127.019 29.5966L116.502 40.1132H80.5346H69.731H33.7633L23.2468 29.5966H1.26611V46.5403H69.731H80.5346H148.999V29.5966H127.019Z" fill="url(#paint1_linear_278_2364)"/>
<path d="M14.8301 0.0697632L0.293945 14.6067V21.9369L22.1611 0.0697632H14.8301Z" fill="url(#paint2_linear_278_2364)"/>
<path d="M134.462 0.0697632L148.999 14.6067V21.9369L127.132 0.0697632H134.462Z" fill="url(#paint3_linear_278_2364)"/>
<path d="M21.1454 32.164H7.89258L15.844 40.1161H29.0968L21.1454 32.164Z" fill="url(#paint4_radial_278_2364)"/>
<path d="M129.156 32.164H142.409L134.457 40.1161H121.205L129.156 32.164Z" fill="url(#paint5_radial_278_2364)"/>
<path d="M117.509 5.36823L121.776 1.0986H27.5171L31.7867 5.36823H117.509Z" fill="url(#paint6_linear_278_2364)"/>
<defs>
<linearGradient id="paint0_linear_278_2364" x1="0.293945" y1="23.305" x2="149" y2="23.305" gradientUnits="userSpaceOnUse">
<stop stop-color="#FF1E2F"/>
<stop offset="1" stop-color="#3EBFFF"/>
</linearGradient>
<linearGradient id="paint1_linear_278_2364" x1="1.26611" y1="38.0685" x2="148.999" y2="38.0685" gradientUnits="userSpaceOnUse">
<stop stop-color="#FF1E2F"/>
<stop offset="1" stop-color="#3EBFFF"/>
</linearGradient>
<linearGradient id="paint2_linear_278_2364" x1="0.293945" y1="11.0033" x2="22.1611" y2="11.0033" gradientUnits="userSpaceOnUse">
<stop stop-color="#FF1E2F"/>
<stop offset="1" stop-color="#3EBFFF"/>
</linearGradient>
<linearGradient id="paint3_linear_278_2364" x1="127.132" y1="11.0033" x2="148.999" y2="11.0033" gradientUnits="userSpaceOnUse">
<stop stop-color="#FF1E2F"/>
<stop offset="1" stop-color="#3EBFFF"/>
</linearGradient>
<radialGradient id="paint4_radial_278_2364" cx="0" cy="0" r="1" gradientUnits="userSpaceOnUse" gradientTransform="translate(18.4948 36.1399) scale(8.00673 8.00673)">
<stop stop-color="#1F1344"/>
<stop offset="0.36094" stop-color="#1D1240"/>
<stop offset="0.68615" stop-color="#180F35"/>
<stop offset="0.99737" stop-color="#100B23"/>
<stop offset="1" stop-color="#100B23"/>
</radialGradient>
<radialGradient id="paint5_radial_278_2364" cx="0" cy="0" r="1" gradientUnits="userSpaceOnUse" gradientTransform="translate(131.807 36.1399) scale(8.00672 8.00673)">
<stop stop-color="#1F1344"/>
<stop offset="0.36094" stop-color="#1D1240"/>
<stop offset="0.68615" stop-color="#180F35"/>
<stop offset="0.99737" stop-color="#100B23"/>
<stop offset="1" stop-color="#100B23"/>
</radialGradient>
<linearGradient id="paint6_linear_278_2364" x1="27.5171" y1="3.23342" x2="121.776" y2="3.23342" gradientUnits="userSpaceOnUse">
<stop stop-color="#FF1E2F"/>
<stop offset="1" stop-color="#3EBFFF"/>
</linearGradient>
</defs>
</svg>
