<svg width="373" height="22" viewBox="0 0 373 22" fill="none" xmlns="http://www.w3.org/2000/svg">
<path d="M359.396 10.6419C361.766 7.26512 363.96 3.17209 366.681 1.90735e-06H373C368.7 2.14884 365.628 8.8 362.293 13.507C361.825 14.0527 361.386 14.5985 360.976 15.1442L360.274 15.9628C356.412 20.3628 352.112 22 346.144 22H309.195H117.605L0 17.6H346.144C352.024 17.6 355.623 15.9628 359.396 10.6419Z" fill="#D9D9D9"/>
<path d="M359.396 10.6419C361.766 7.26512 363.96 3.17209 366.681 1.90735e-06H373C368.7 2.14884 365.628 8.8 362.293 13.507C361.825 14.0527 361.386 14.5985 360.976 15.1442L360.274 15.9628C356.412 20.3628 352.112 22 346.144 22H309.195H117.605L0 17.6H346.144C352.024 17.6 355.623 15.9628 359.396 10.6419Z" fill="url(#paint0_linear_198_237)"/>
<defs>
<linearGradient id="paint0_linear_198_237" x1="372.919" y1="22.1076" x2="117.6" y2="22.1076" gradientUnits="userSpaceOnUse">
<stop stop-color="#9E0000"/>
<stop offset="1" stop-color="#FF1212"/>
</linearGradient>
</defs>
</svg>
