<svg width="373" height="22" viewBox="0 0 373 22" fill="none" xmlns="http://www.w3.org/2000/svg">
<path d="M13.7328 11.3581C11.3406 14.7349 9.12565 18.8279 6.3791 22H0C4.34133 19.8512 7.44228 13.2 10.809 8.49302C11.2816 7.94728 11.7245 7.40155 12.138 6.85581L12.8468 6.03721C16.7451 1.63721 21.0865 0 27.1112 0H64.4112H257.822L373 4.4H27.1112C21.1751 4.4 17.5425 6.03721 13.7328 11.3581Z" fill="#D9D9D9"/>
<path d="M13.7328 11.3581C11.3406 14.7349 9.12565 18.8279 6.3791 22H0C4.34133 19.8512 7.44228 13.2 10.809 8.49302C11.2816 7.94728 11.7245 7.40155 12.138 6.85581L12.8468 6.03721C16.7451 1.63721 21.0865 0 27.1112 0H64.4112H257.822L373 4.4H27.1112C21.1751 4.4 17.5425 6.03721 13.7328 11.3581Z" fill="url(#paint0_linear_198_236)"/>
<defs>
<linearGradient id="paint0_linear_198_236" x1="0.0814174" y1="-0.107646" x2="257.826" y2="-0.107646" gradientUnits="userSpaceOnUse">
<stop stop-color="#9E0000"/>
<stop offset="1" stop-color="#FF1212"/>
</linearGradient>
</defs>
</svg>
